<svg width="70" height="72" viewBox="0 0 70 72" fill="none" xmlns="http://www.w3.org/2000/svg">
<g filter="url(#filter0_d_1004689_1316)">
<path d="M65.2183 30.6025C65.2149 13.6978 51.5078 -0.00341734 34.6025 6.39362e-07C17.6978 0.00341861 3.99658 13.7109 4 30.6157C4.00293 43.9316 12.6138 55.7178 25.2988 59.7681C25.4199 59.8062 25.5459 59.8257 25.6724 59.8252C25.9136 59.8247 26.1499 59.7603 26.3574 59.6377C26.6274 59.478 26.8291 59.2241 26.9238 58.9248L34.6538 34.4248C36.7671 34.4141 38.4712 32.6919 38.46 30.5791C38.4492 28.4658 36.7275 26.7617 34.6143 26.7725C34.0459 26.7749 33.4849 26.9058 32.9741 27.1553L22.7622 16.9419C22.2554 16.4526 21.4482 16.4668 20.959 16.9731C20.4814 17.4678 20.4814 18.251 20.959 18.7456L31.1655 28.9639C30.3823 30.5625 30.8301 32.4922 32.2383 33.582L24.873 56.9277C10.3174 51.5659 2.86426 35.4199 8.22608 20.8643C13.5879 6.30859 29.7339 -1.14453 44.2896 4.21729C58.8452 9.5791 66.2983 25.7256 60.9365 40.2808C58.3169 47.3921 52.9346 53.1431 46.0122 56.2275L45.2163 52.479C45.0708 51.79 44.3936 51.3496 43.7046 51.4956C43.4873 51.542 43.2856 51.6441 43.1196 51.792L35.4458 58.6431C34.9194 59.1113 34.8726 59.9175 35.3413 60.4439C35.4937 60.6148 35.689 60.7417 35.9077 60.8115L45.7051 63.9385C46.3755 64.1538 47.0938 63.7852 47.3091 63.1143C47.3774 62.9024 47.3887 62.6768 47.3428 62.459L46.5606 58.7808C57.8892 54.0049 65.2446 42.8965 65.2183 30.6025ZM34.6094 29.3272C35.3135 29.3272 35.8848 29.8984 35.8848 30.6025C35.8848 31.3071 35.3135 31.8779 34.6094 31.8779C33.9048 31.8779 33.334 31.3071 33.334 30.6025C33.334 29.8984 33.9048 29.3272 34.6094 29.3272ZM38.8101 59.0552L43.1782 55.1587L44.3838 60.8394L38.8101 59.0552Z" fill="#2E2F42"/>
<path d="M33.334 6.37012V8.9209C33.334 9.62549 33.9048 10.1963 34.6094 10.1963C35.3135 10.1963 35.8848 9.62549 35.8848 8.9209V6.37012C35.8848 5.66602 35.3135 5.09473 34.6094 5.09473C33.9048 5.09473 33.334 5.66602 33.334 6.37012Z" fill="#4D5AE5"/>
<path d="M10.377 29.3271C9.67236 29.3271 9.10156 29.8984 9.10156 30.6025C9.10156 31.3071 9.67236 31.8779 10.377 31.8779H12.9277C13.6323 31.8779 14.2031 31.3071 14.2031 30.6025C14.2031 29.8984 13.6323 29.3271 12.9277 29.3271H10.377Z" fill="#4D5AE5"/>
<path d="M58.8412 31.8779C59.5458 31.8779 60.1166 31.3071 60.1166 30.6025C60.1166 29.8984 59.5458 29.3271 58.8412 29.3271H56.2905C55.5864 29.3271 55.0151 29.8984 55.0151 30.6025C55.0151 31.3071 55.5864 31.8779 56.2905 31.8779H58.8412Z" fill="#4D5AE5"/>
</g>
<defs>
<filter id="filter0_d_1004689_1316" x="-1.375" y="0" width="72" height="72" filterUnits="userSpaceOnUse" color-interpolation-filters="sRGB">
<feFlood flood-opacity="0" result="BackgroundImageFix"/>
<feColorMatrix in="SourceAlpha" type="matrix" values="0 0 0 0 0 0 0 0 0 0 0 0 0 0 0 0 0 0 127 0" result="hardAlpha"/>
<feOffset dy="4"/>
<feGaussianBlur stdDeviation="2"/>
<feComposite in2="hardAlpha" operator="out"/>
<feColorMatrix type="matrix" values="0 0 0 0 0 0 0 0 0 0 0 0 0 0 0 0 0 0 0.25 0"/>
<feBlend mode="normal" in2="BackgroundImageFix" result="effect1_dropShadow_1004689_1316"/>
<feBlend mode="normal" in="SourceGraphic" in2="effect1_dropShadow_1004689_1316" result="shape"/>
</filter>
</defs>
</svg>
